<svg xmlns="http://www.w3.org/2000/svg" width="18.543" height="18.521" viewBox="0 0 18.543 18.521">
  <path id="Path_144" data-name="Path 144" d="M753.019,2537.495a7.381,7.381,0,0,1-10.153,5.613,3.049,3.049,0,0,0-1.151-.242,3.11,3.11,0,0,0-.514.049l-2.6.521.522-2.6a2.776,2.776,0,0,0-.193-1.666,7.384,7.384,0,1,1,14.092-1.674m-.766-7.714a9.227,9.227,0,0,0-15.021,10.151.972.972,0,0,1,.079.587l-.808,3.9a.916.916,0,0,0,.923,1.109h.186l3.947-.793a1.175,1.175,0,0,1,.594.086A9.227,9.227,0,0,0,752.3,2529.8Z" transform="translate(-736.479 -2527.055)" fill="#bababa"/>
</svg>
