<svg xmlns="http://www.w3.org/2000/svg" width="45" height="44" viewBox="0 0 45 44">
  <g id="Group_144" data-name="Group 144" transform="translate(-1497 -821.001)">
    <rect id="Rectangle_207" data-name="Rectangle 207" width="45" height="44" rx="5" transform="translate(1497 821.001)" fill="#dcdcdc"/>
    <g id="Icon_feather-refresh-ccw" data-name="Icon feather-refresh-ccw" transform="translate(1511.084 832.735)">
      <path id="Path_234" data-name="Path 234" d="M1.5,6v4H5.318" transform="translate(0 -0.831)" fill="none" stroke="#1a1a1a" stroke-linecap="round" stroke-linejoin="round" stroke-width="2"/>
      <path id="Path_235" data-name="Path 235" d="M29.318,25V21H25.5" transform="translate(-13.818 -9.163)" fill="none" stroke="#1a1a1a" stroke-linecap="round" stroke-linejoin="round" stroke-width="2"/>
      <path id="Path_236" data-name="Path 236" d="M13.9,8.5A5.827,5.827,0,0,0,9.767,4.651,5.556,5.556,0,0,0,4.453,6.262L1.5,9.17m14,2.667-2.953,2.907a5.556,5.556,0,0,1-5.315,1.611A5.827,5.827,0,0,1,3.1,12.5" transform="translate(0)" fill="none" stroke="#1a1a1a" stroke-linecap="round" stroke-linejoin="round" stroke-width="2"/>
    </g>
  </g>
</svg>
