<svg xmlns="http://www.w3.org/2000/svg" width="15" height="10" viewBox="0 0 15 10">
  <path id="Icon_awesome-eye" data-name="Icon awesome-eye" d="M14.909,9.12A8.353,8.353,0,0,0,7.5,4.5,8.354,8.354,0,0,0,.091,9.12a.842.842,0,0,0,0,.76A8.353,8.353,0,0,0,7.5,14.5a8.354,8.354,0,0,0,7.409-4.62A.842.842,0,0,0,14.909,9.12ZM7.5,13.25A3.75,3.75,0,1,1,11.25,9.5,3.75,3.75,0,0,1,7.5,13.25ZM7.5,7a2.482,2.482,0,0,0-.659.1A1.246,1.246,0,0,1,5.1,8.841,2.494,2.494,0,1,0,7.5,7Z" transform="translate(0 -4.5)" fill="#8f8f8f"/>
</svg>
