<svg xmlns="http://www.w3.org/2000/svg" width="20.013" height="21" viewBox="0 0 20.013 21">
  <g id="Group_236" data-name="Group 236" transform="translate(-1469.817 -1432.312)">
    <path id="Path_156" data-name="Path 156" d="M1489.83,1433.219v.908a.892.892,0,0,1-.268.647.873.873,0,0,1-.64.262h-18.2a.874.874,0,0,1-.641-.262.9.9,0,0,1-.268-.647v-.908a.879.879,0,0,1,.268-.64.854.854,0,0,1,.641-.269h18.2a.853.853,0,0,1,.64.269.877.877,0,0,1,.268.64" transform="translate(0.001 0.002)" fill="#2b2929"/>
    <path id="Path_157" data-name="Path 157" d="M1473.368,1432.31h.909a.894.894,0,0,1,.647.269.87.87,0,0,1,.262.64v3.641a.9.9,0,0,1-.909.907h-.909a.853.853,0,0,1-.64-.268.875.875,0,0,1-.267-.639v-3.641a.915.915,0,0,1,.907-.909" transform="translate(14.638 0.002)" fill="#2b2929"/>
    <path id="Path_158" data-name="Path 158" d="M1470.725,1432.31h.908a.894.894,0,0,1,.647.269.873.873,0,0,1,.261.64v3.641a.9.9,0,0,1-.908.907h-.908a.853.853,0,0,1-.641-.268.879.879,0,0,1-.268-.639v-3.641a.916.916,0,0,1,.909-.909" transform="translate(0.001 0.002)" fill="#2b2929"/>
    <path id="Path_159" data-name="Path 159" d="M1471.641,1439.367a1.217,1.217,0,0,1-.732-2.19l4.869-3.653a1.237,1.237,0,0,1,1.438,0l4.863,3.432a1.215,1.215,0,0,1,.293,1.693,1.218,1.218,0,0,1-1.706.294l-4.156-2.935-4.137,3.118a1.256,1.256,0,0,1-.732.242" transform="translate(3.359 5.429)" fill="#2b2929"/>
    <path id="Path_160" data-name="Path 160" d="M1472.386,1445.828a1.213,1.213,0,0,1-1.216-1.216v-9.732a1.216,1.216,0,1,1,2.431,0v9.732a1.213,1.213,0,0,1-1.215,1.216" transform="translate(7.483 7.484)" fill="#2b2929"/>
  </g>
</svg>
