<svg xmlns="http://www.w3.org/2000/svg" width="20.872" height="19.924" viewBox="0 0 20.872 19.924">
  <path id="advance-noti" d="M712.447,1660.513h1.9a8.541,8.541,0,0,1,2.53-6.061l-1.344-1.345a10.4,10.4,0,0,0-3.084,7.406m17.788-7.406-1.344,1.345a8.544,8.544,0,0,1,2.53,6.061h1.9a10.4,10.4,0,0,0-3.084-7.406m-5.458,16.9a1.894,1.894,0,1,1-3.789,0m10.432-1.9v.948H714.345v-.948l1.9-1.9v-5.694a6.628,6.628,0,0,1,4.745-6.363v-.274a1.894,1.894,0,1,1,3.789,0v.274a6.628,6.628,0,0,1,4.746,6.363v5.694l1.9,1.9" transform="translate(-712.447 -1651.979)" fill="#ffdb5f"/>
</svg>
