<svg xmlns="http://www.w3.org/2000/svg" width="22.881" height="22.899" viewBox="0 0 22.881 22.899">
  <g id="virtual-private-cloud-alt" transform="translate(-1.993 -1.98)">
    <path id="Path_310" data-name="Path 310" d="M19.362,18.231,8.643,7.513V2.25H2.25V8.643H7.513L18.231,19.362v5.263h6.393V18.231ZM7.044,7.044h-3.2v-3.2h3.2ZM23.026,23.026h-3.2v-3.2h3.2Z" transform="translate(0 -0.001)" fill="#ffdb5f" stroke="#ffdb5f" stroke-width="0.5"/>
    <path id="Path_311" data-name="Path 311" d="M28.209,5.445a3.189,3.189,0,0,0-6.279-.8H14.625v1.6H21.93a3.191,3.191,0,0,0,2.284,2.284v7.305h1.6V8.528a3.193,3.193,0,0,0,2.4-3.083Zm-3.2,1.6a1.6,1.6,0,1,1,1.6-1.6,1.6,1.6,0,0,1-1.6,1.6Z" transform="translate(-3.585)" fill="#ffdb5f" stroke="#ffdb5f" stroke-width="0.5"/>
    <path id="Path_312" data-name="Path 312" d="M15.834,24.214H8.529A3.191,3.191,0,0,0,6.246,21.93V14.625h-1.6V21.93a3.189,3.189,0,1,0,3.882,3.882h7.305Zm-10.388,2.4a1.6,1.6,0,1,1,1.6-1.6A1.6,1.6,0,0,1,5.446,26.611Z" transform="translate(0 -3.586)" fill="#ffdb5f" stroke="#ffdb5f" stroke-width="0.5"/>
  </g>
</svg>
