<svg xmlns="http://www.w3.org/2000/svg" width="19.248" height="20.656" viewBox="0 0 19.248 20.656">
  <path id="_216667_magnet_icon" data-name="216667_magnet_icon" d="M12.164,19.552a.678.678,0,0,0,.64.717l4.677.384a.7.7,0,0,0,.763-.6L18.61,16.2l-6.08-.5ZM.639,16.2,1,20.052a.694.694,0,0,0,.763.6l4.677-.384a.679.679,0,0,0,.64-.717l-.365-3.858Zm-.6-6.357.377,3.979,6.08-.5L6.116,9.342c-.009-.1-.013-.195-.013-.292A3.425,3.425,0,0,1,9.624,5.739,3.425,3.425,0,0,1,13.145,9.05c0,.1,0,.2-.013.292l-.377,3.974,6.08.5.377-3.979c.024-.263.036-.527.036-.788C19.248,4.059,14.931,0,9.624,0S0,4.059,0,9.05C0,9.312.012,9.575.036,9.838Z" fill="#ffdb5f"/>
</svg>
