<svg id="monetization_on_black_24dp" xmlns="http://www.w3.org/2000/svg" width="26.386" height="26.386" viewBox="0 0 26.386 26.386">
  <path id="Path_344" data-name="Path 344" d="M0,0H26.386V26.386H0Z" fill="none"/>
  <path id="Path_345" data-name="Path 345" d="M12.994,2A10.994,10.994,0,1,0,23.988,12.994,11,11,0,0,0,12.994,2Zm0,19.789a8.8,8.8,0,1,1,8.8-8.8A8.807,8.807,0,0,1,12.994,21.789Zm.341-9.741c-1.946-.495-2.573-1.033-2.573-1.836,0-.924.869-1.572,2.309-1.572,1.517,0,2.089.726,2.133,1.8h1.88a3.411,3.411,0,0,0-2.738-3.265V5.3H11.785V7.156c-1.66.352-2.99,1.429-2.99,3.089,0,1.968,1.638,2.957,4.024,3.529,2.144.506,2.573,1.264,2.573,2.056,0,.583-.429,1.528-2.309,1.528-1.759,0-2.452-.792-2.551-1.8H8.64a3.565,3.565,0,0,0,3.144,3.265V20.69h2.573V18.854c1.671-.319,2.99-1.275,3-3.045-.011-2.419-2.089-3.254-4.024-3.76Z" transform="translate(0.199 0.199)" fill="#ffdb5f"/>
</svg>
