<svg xmlns="http://www.w3.org/2000/svg" width="22.024" height="22.024" viewBox="0 0 22.024 22.024">
  <path id="_24-hours-fill" data-name="24-hours-fill" d="M14.012,15.113A3.3,3.3,0,0,1,16.3,20.8l-2.1,2.024h3.116v2.2H10.709v-1.9l4.067-3.915a1.1,1.1,0,1,0-1.865-.794h-2.2A3.3,3.3,0,0,1,14.012,15.113Zm6.607,0v4.4h2.2v-4.4h2.2v9.911h-2.2v-3.3h-4.4V15.113ZM5.2,14.012a8.794,8.794,0,0,0,3.3,6.878v2.661A11.006,11.006,0,0,1,3,14.012ZM14.012,3a11.013,11.013,0,0,1,10.957,9.911H22.754a8.811,8.811,0,0,0-15.5-4.554l2.351,2.351H3V4.1L5.7,6.795A10.99,10.99,0,0,1,14.012,3Z" transform="translate(-3 -3)" fill="#ffdb5f"/>
</svg>
