<svg xmlns="http://www.w3.org/2000/svg" width="25.251" height="24.079" viewBox="0 0 25.251 24.079">
  <path id="Path_140" data-name="Path 140" d="M723.813,1697.331v5.048h-1.265a1.261,1.261,0,0,0-1.258,1.265h-8.844v2.524h8.844a1.261,1.261,0,0,0,1.258,1.265H727.6a1.261,1.261,0,0,0,1.258-1.265H737.7v-2.524H728.86a1.261,1.261,0,0,0-1.258-1.265h-1.265v-5.048Zm1.259-7.578a2.528,2.528,0,1,0,2.531,2.532,2.529,2.529,0,0,0-2.531-2.532m5.357-2.825-1.784,1.782a5.042,5.042,0,0,1,0,7.14l1.784,1.782a7.559,7.559,0,0,0,0-10.7m-10.706,0a7.558,7.558,0,0,0,0,10.7l1.776-1.782a5.059,5.059,0,0,1,0-7.14l-1.776-1.782M734,1683.355l-1.783,1.783a10.111,10.111,0,0,1,0,14.286l1.783,1.783a12.628,12.628,0,0,0,0-17.853m-17.852,0a12.612,12.612,0,0,0,0,17.853l1.783-1.783a10.112,10.112,0,0,1,0-14.286l-1.783-1.783" transform="translate(-712.446 -1683.355)" fill="#ffdb5f"/>
</svg>
