<svg id="Component_139_1" data-name="Component 139 – 1" xmlns="http://www.w3.org/2000/svg" width="21.948" height="21.927" viewBox="0 0 21.948 21.927">
  <path id="magnifier" d="M21.541,21.52a1.372,1.372,0,0,1-1.951,0l-4.243-4.244a9.571,9.571,0,0,1-9.474,1.147,9.463,9.463,0,0,1-5.112-5.1,9.547,9.547,0,0,1,0-7.47A9.562,9.562,0,0,1,2.808,2.8,9.684,9.684,0,0,1,5.872.761a9.522,9.522,0,0,1,7.459,0A9.777,9.777,0,0,1,16.4,2.8a9.5,9.5,0,0,1,2.047,3.054A9.381,9.381,0,0,1,19.2,9.581,9.352,9.352,0,0,1,17.3,15.325l4.244,4.244a1.372,1.372,0,0,1,0,1.951ZM9.6,2.744A6.837,6.837,0,0,0,2.744,9.592,6.826,6.826,0,0,0,9.6,16.44a6.837,6.837,0,0,0,6.859-6.848A6.825,6.825,0,0,0,9.6,2.744Z" fill="#ffdb5f"/>
  <path id="star" d="M7.753,10.05,4.791,7.878,1.772,9.97l1.15-3.488L0,4.257l3.673.016L4.886.806l1.12,3.5,3.672.083L6.7,6.533Z" transform="translate(5.161 3.566)" fill="#ffdb5f"/>
</svg>
