<svg xmlns="http://www.w3.org/2000/svg" width="20.426" height="17.768" viewBox="0 0 20.426 17.768">
  <g id="calendar" transform="translate(-4.5 -4.5)">
    <path id="Path_346" data-name="Path 346" d="M11.753,13.5a1.144,1.144,0,0,0-1.253.987,1.144,1.144,0,0,0,1.253.987H21.776a1.144,1.144,0,0,0,1.253-.987,1.144,1.144,0,0,0-1.253-.987Z" transform="translate(-2.052 -3.077)" fill="#ffdb5f"/>
    <path id="Path_347" data-name="Path 347" d="M7.9,4.5A3.206,3.206,0,0,0,4.5,7.461V19.307a3.206,3.206,0,0,0,3.4,2.961H21.521a3.206,3.206,0,0,0,3.4-2.961V7.461a3.206,3.206,0,0,0-3.4-2.961ZM6.77,19.307V8.448H22.656V19.307a1.069,1.069,0,0,1-1.135.987H7.9A1.069,1.069,0,0,1,6.77,19.307Z" transform="translate(0)" fill="#ffdb5f" fill-rule="evenodd"/>
  </g>
</svg>
