<svg xmlns="http://www.w3.org/2000/svg" width="17.572" height="23.094" viewBox="0 0 17.572 23.094">
  <path id="preferred-place" d="M722.491,1668.6h-2.509v-4.2h2.509Zm-1.258,15.747h-5.019v-1.05h5.019Zm5.019-2.1H716.207v-1.05h10.045Zm0-3.149H716.214v-1.05c0-1.4,3.35-2.1,5.019-2.1s5.019.7,5.019,2.1v1.05m-5.019-8.4a2.133,2.133,0,1,1-2.509,2.1,2.332,2.332,0,0,1,2.509-2.1m6.277-4.2h-3.767v2.1h3.767v16.8H714.956v-16.8h3.767v-2.1h-3.767a2.332,2.332,0,0,0-2.509,2.1v16.8a2.327,2.327,0,0,0,2.509,2.1H727.51a2.327,2.327,0,0,0,2.509-2.1v-16.8a2.332,2.332,0,0,0-2.509-2.1" transform="translate(-712.447 -1664.406)" fill="#ffdb5f"/>
</svg>
