<svg id="headset_mic_black_24dp" xmlns="http://www.w3.org/2000/svg" width="27.238" height="27.238" viewBox="0 0 27.238 27.238">
  <path id="Path_313" data-name="Path 313" d="M0,0H27.238V27.238H0Z" fill="none"/>
  <path id="Path_314" data-name="Path 314" d="M21.159,15.754v4.54h-2.27v-4.54h2.27m-13.619,0v4.54H6.4A1.138,1.138,0,0,1,5.27,19.159v-3.4H7.54M13.214,1A10.215,10.215,0,0,0,3,11.214v7.944a3.4,3.4,0,0,0,3.4,3.4h3.4V13.484H5.27v-2.27a7.944,7.944,0,0,1,15.889,0v2.27h-4.54v9.079h4.54V23.7H13.214v2.27h6.81a3.4,3.4,0,0,0,3.4-3.4V11.214A10.215,10.215,0,0,0,13.214,1Z" transform="translate(0.405 0.135)" fill="#ffdb5f"/>
</svg>
