<svg xmlns="http://www.w3.org/2000/svg" width="19.22" height="16.261" viewBox="0 0 19.22 16.261">
  <g id="options" transform="translate(-3.375 -5.626)">
    <path id="Path_341" data-name="Path 341" d="M4.114,8.582H14.59a2.218,2.218,0,0,0,4.181,0h3.084a.739.739,0,0,0,0-1.478H18.772a2.218,2.218,0,0,0-4.181,0H4.114a.739.739,0,0,0,0,1.478Z" fill="#ffdb5f"/>
    <path id="Path_342" data-name="Path 342" d="M21.856,25.1H18.772a2.218,2.218,0,0,0-4.181,0H4.114a.739.739,0,1,0,0,1.478H14.59a2.218,2.218,0,0,0,4.181,0h3.084a.739.739,0,1,0,0-1.478Z" transform="translate(0 -6.172)" fill="#ffdb5f"/>
    <path id="Path_343" data-name="Path 343" d="M21.856,16.1H11.38a2.218,2.218,0,0,0-4.181,0H4.114a.739.739,0,1,0,0,1.478H7.2a2.218,2.218,0,0,0,4.181,0H21.856a.739.739,0,1,0,0-1.478Z" transform="translate(0 -3.086)" fill="#ffdb5f"/>
  </g>
</svg>
