<svg id="Layer_1" data-name="Layer 1" xmlns="http://www.w3.org/2000/svg" viewBox="0 0 510.86 100.44"><defs><style>.cls-1{fill:#ffdb5f;}</style></defs><path class="cls-1" d="M64.13,100.41V79.71a3.44,3.44,0,0,0-3.46-3.44h-24L58.1,34.9a3.44,3.44,0,0,0-3.07-5H36.56L0,100.44Z"/><path class="cls-1" d="M39.53,24.14h22a3.49,3.49,0,0,0,3.07-1.85L73.59,5a3.41,3.41,0,0,0-.12-3.36A3.39,3.39,0,0,0,70.55,0H52.08Z"/><path class="cls-1" d="M88.28,100.41V79.71a3.44,3.44,0,0,1,3.46-3.44h24L94.31,34.9a3.44,3.44,0,0,1,.14-3.35,3.4,3.4,0,0,1,2.93-1.66h18.47l36.56,70.55Z"/><path class="cls-1" d="M112.89,24.14,100.36,0H81.87a3.43,3.43,0,0,0-3,5l8.94,17.26a3.43,3.43,0,0,0,3,1.87Z"/><path class="cls-1" d="M244.6,87.09H228.34V42.42H244.6Zm16.59-56.47H211.73v69.75h49.46Z"/><path class="cls-1" d="M343.92,67.87,348.61,42l4.95,25.92ZM362,30.58H335.1l-12.79,69.83H338l3.41-18.56h14.9l3.59,18.56h15.66Z"/><polygon class="cls-1" points="162.26 30.62 178.88 30.62 178.88 87.1 205.19 87.1 205.19 100.38 162.26 100.38 162.26 30.62"/><path class="cls-1" d="M286.54,59.5V42.44H294a8.56,8.56,0,0,1,7.49,13,8.64,8.64,0,0,1-7.65,4.14h-7.32m0,27.56V70H294a8.55,8.55,0,1,1-.16,17.1Zm16.06,13.28a16.89,16.89,0,0,0,16.89-16.89v-2.3a16.85,16.85,0,0,0-12-16.14v0a16.9,16.9,0,0,0,9.66-15.25V47.44a16.89,16.89,0,0,0-16.89-16.87H270v69.79Z"/><polygon class="cls-1" points="431.48 30.56 414.87 30.56 414.87 57.25 398.58 57.25 398.58 30.56 381.99 30.56 381.99 57.25 381.99 71.22 381.99 100.37 398.58 100.37 398.58 71.22 414.87 71.22 414.87 100.37 431.48 100.37 431.48 71.22 431.48 57.25 431.48 30.56"/><polygon class="cls-1" points="473.23 30.56 473.23 65.11 456.95 30.56 440.36 30.56 440.36 100.37 456.95 100.37 456.95 63.3 474.42 100.37 489.84 100.37 489.84 30.56 473.23 30.56"/><path class="cls-1" d="M502.54,45.48a6.61,6.61,0,1,1,4.69-1.94,6.6,6.6,0,0,1-4.69,1.94m0-14.92a8.31,8.31,0,1,0,8.32,8.32,8.31,8.31,0,0,0-8.32-8.32"/><path class="cls-1" d="M502.67,38.31h-1.23V35.48h1.23a1.45,1.45,0,0,1,1.49.61,1.44,1.44,0,0,1-1.49,2.2Zm3.81-1.43A2.88,2.88,0,0,0,503.61,34h-4.94v9.34h2.74v-3.5l2.86,3.5H507l-3-3.65a2.88,2.88,0,0,0,2.48-2.82"/></svg>