<svg xmlns="http://www.w3.org/2000/svg" xmlns:xlink="http://www.w3.org/1999/xlink" width="36" height="36" viewBox="0 0 36 36">
  <defs>
    <clipPath id="clip-path">
      <rect id="Rectangle_4020" data-name="Rectangle 4020" width="36" height="36" transform="translate(0.339 0.264)" fill="#2670e0"/>
    </clipPath>
  </defs>
  <g id="Mask_Group_48" data-name="Mask Group 48" transform="translate(-0.339 -0.264)" clip-path="url(#clip-path)">
    <g id="instagram_2_" data-name="instagram (2)" transform="translate(0.295 0.088)">
      <path id="Path_3940" data-name="Path 3940" d="M36.3,10.687a13.283,13.283,0,0,0-.845-4.41A9.312,9.312,0,0,0,30.131.959a13.317,13.317,0,0,0-4.41-.845C23.776.021,23.158,0,18.223,0S12.67.021,10.731.107a13.286,13.286,0,0,0-4.41.845A8.869,8.869,0,0,0,3.1,3.053,8.95,8.95,0,0,0,1,6.27a13.318,13.318,0,0,0-.845,4.41c-.092,1.946-.114,2.564-.114,7.5s.021,5.553.107,7.492A13.282,13.282,0,0,0,1,30.08,9.31,9.31,0,0,0,6.314,35.4a13.319,13.319,0,0,0,4.41.845c1.938.085,2.556.107,7.492.107s5.553-.021,7.492-.107a13.279,13.279,0,0,0,4.41-.845,9.3,9.3,0,0,0,5.319-5.319,13.327,13.327,0,0,0,.845-4.41c.085-1.939.107-2.556.107-7.492s-.007-5.553-.092-7.492ZM33.022,25.529A9.963,9.963,0,0,1,32.4,28.9a6.03,6.03,0,0,1-3.451,3.451,10,10,0,0,1-3.373.625c-1.917.085-2.492.107-7.342.107s-5.432-.021-7.343-.107a9.958,9.958,0,0,1-3.373-.625A5.594,5.594,0,0,1,5.427,31,5.651,5.651,0,0,1,4.07,28.909a10,10,0,0,1-.625-3.373c-.085-1.917-.107-2.493-.107-7.343s.021-5.432.107-7.342A9.958,9.958,0,0,1,4.07,7.478,5.525,5.525,0,0,1,5.434,5.39,5.643,5.643,0,0,1,7.521,4.034a10.006,10.006,0,0,1,3.373-.625c1.917-.085,2.493-.107,7.342-.107s5.432.021,7.343.107a9.963,9.963,0,0,1,3.373.625A5.589,5.589,0,0,1,31.04,5.39,5.65,5.65,0,0,1,32.4,7.478a10,10,0,0,1,.625,3.373c.085,1.917.107,2.492.107,7.342s-.021,5.418-.107,7.336Zm0,0" transform="translate(-0.044 0)"/>
      <path id="Path_3941" data-name="Path 3941" d="M21.542,12.161A9.338,9.338,0,1,0,30.88,21.5,9.34,9.34,0,0,0,21.542,12.161Zm0,15.4A6.057,6.057,0,1,1,27.6,21.5a6.058,6.058,0,0,1-6.057,6.057Zm0,0" transform="translate(-3.364 -3.32)"/>
      <path id="Path_3942" data-name="Path 3942" d="M39.763,10.834a2.18,2.18,0,1,1-2.18-2.18A2.18,2.18,0,0,1,39.763,10.834Zm0,0" transform="translate(-9.696 -2.363)"/>
    </g>
  </g>
</svg>
