<svg xmlns="http://www.w3.org/2000/svg" xmlns:xlink="http://www.w3.org/1999/xlink" width="36" height="36" viewBox="0 0 36 36">
  <defs>
    <clipPath id="clip-path">
      <rect id="Rectangle_4021" data-name="Rectangle 4021" width="36" height="36" transform="translate(0.189 0.264)" fill="#2670e0"/>
    </clipPath>
  </defs>
  <g id="Mask_Group_47" data-name="Mask Group 47" transform="translate(-0.189 -0.264)" clip-path="url(#clip-path)">
    <g id="twitter_2_" data-name="twitter (2)" transform="translate(-0.114 3.496)">
      <g id="Group_4217" data-name="Group 4217" transform="translate(0)">
        <path id="Path_3939" data-name="Path 3939" d="M36.351,8.184a15.537,15.537,0,0,1-4.294,1.177,7.41,7.41,0,0,0,3.278-4.119,14.893,14.893,0,0,1-4.726,1.8,7.452,7.452,0,0,0-12.891,5.1,7.673,7.673,0,0,0,.173,1.7A21.093,21.093,0,0,1,2.531,6.046a7.454,7.454,0,0,0,2.29,9.96,7.36,7.36,0,0,1-3.367-.918v.082a7.486,7.486,0,0,0,5.971,7.322,7.438,7.438,0,0,1-1.954.245,6.589,6.589,0,0,1-1.411-.127A7.523,7.523,0,0,0,11.023,27.8a14.974,14.974,0,0,1-9.24,3.178A13.959,13.959,0,0,1,0,30.878a20.98,20.98,0,0,0,11.432,3.344c13.713,0,21.211-11.36,21.211-21.206,0-.329-.011-.647-.027-.963A14.867,14.867,0,0,0,36.351,8.184Z" transform="translate(0 -4.688)"/>
      </g>
    </g>
  </g>
</svg>
