<svg xmlns="http://www.w3.org/2000/svg" width="166.065" height="120" viewBox="0 0 166.065 120">
  <g id="Group_1" data-name="Group 1" transform="translate(-55.862 -174.926)">
    <path id="Path_13" data-name="Path 13" d="M79.856,177.733c-3.377,0-6.125,3.131-6.125,6.984s2.748,6.993,6.125,6.993,6.134-3.131,6.134-6.993-2.748-6.984-6.134-6.984m0,16.767c-4.917,0-8.924-4.39-8.924-9.792s4-9.783,8.924-9.783,8.932,4.407,8.932,9.792-4,9.783-8.932,9.783" transform="translate(113.131 0)" fill="#ffdb5f"/>
    <path id="Path_14" data-name="Path 14" d="M106.328,204.195h-2.8V190.346a10.378,10.378,0,0,0-10.455-10.2H83.061a10.377,10.377,0,0,0-10.455,10.2v13.849h-2.8V190.346a13.145,13.145,0,0,1,13.254-13.024H93.074a13.149,13.149,0,0,1,13.254,12.99Z" transform="translate(104.685 17.979)" fill="#ffdb5f"/>
    <rect id="Rectangle_1" data-name="Rectangle 1" width="2.799" height="11.263" transform="translate(201.681 210.911)" fill="#ffdb5f"/>
    <rect id="Rectangle_2" data-name="Rectangle 2" width="2.799" height="11.263" transform="translate(181.213 210.911)" fill="#ffdb5f"/>
    <path id="Path_15" data-name="Path 15" d="M117.178,179.31v2.884c4.066,1.455,6.3,3.2,6.3,4.721,0,3.148-9.919,7.537-26.065,7.537s-26.057-4.39-26.057-7.537c0-1.412,2-3.054,5.351-4.381v-2.926l-1,.349c-5.853,2.314-7.095,5.045-7.095,6.925,0,6.678,14.845,10.277,28.8,10.277s28.8-3.6,28.8-10.277c0-3.284-3.658-5.836-9.043-7.571" transform="translate(95.707 32.911)" fill="#ffdb5f"/>
    <path id="Path_16" data-name="Path 16" d="M67.113,177.726c-3.386,0-6.134,3.131-6.134,6.984s2.748,6.993,6.134,6.993,6.125-3.131,6.125-6.993-2.731-6.984-6.125-6.984m0,16.767c-4.917,0-8.932-4.39-8.932-9.792s4.032-9.775,8.932-9.775,8.932,4.4,8.932,9.783-4,9.783-8.932,9.783" transform="translate(17.409 0.008)" fill="#ffdb5f"/>
    <path id="Path_17" data-name="Path 17" d="M93.571,204.195h-2.8V190.346a10.379,10.379,0,0,0-10.438-10.2H70.3a10.37,10.37,0,0,0-10.447,10.2v13.849h-2.8V190.346A13.138,13.138,0,0,1,70.3,177.321h10.03a13.149,13.149,0,0,1,13.254,12.99Z" transform="translate(8.986 17.979)" fill="#ffdb5f"/>
    <rect id="Rectangle_3" data-name="Rectangle 3" width="2.799" height="11.263" transform="translate(93.216 210.911)" fill="#ffdb5f"/>
    <rect id="Rectangle_4" data-name="Rectangle 4" width="2.799" height="11.263" transform="translate(72.748 210.911)" fill="#ffdb5f"/>
    <path id="Path_18" data-name="Path 18" d="M104.42,179.31v2.884c4.075,1.455,6.312,3.2,6.312,4.721,0,3.148-9.911,7.537-26.065,7.537S58.6,190.063,58.6,186.915c0-1.412,2.008-3.054,5.359-4.381v-2.926l-1,.349c-5.861,2.314-7.095,5.045-7.095,6.925,0,6.678,14.845,10.277,28.8,10.277s28.8-3.6,28.8-10.277c0-3.284-3.658-5.836-9.051-7.571" transform="translate(0 32.911)" fill="#ffdb5f"/>
    <rect id="Rectangle_5" data-name="Rectangle 5" width="2.791" height="34.595" transform="matrix(0.783, -0.621, 0.621, 0.783, 82.885, 229.144)" fill="#ffdb5f"/>
    <path id="Path_19" data-name="Path 19" d="M69.119,206.608,89.084,181.1l2.2,1.718L71.322,208.327Z" transform="translate(99.518 46.327)" fill="#ffdb5f"/>
    <path id="Path_20" data-name="Path 20" d="M77.778,180.475c-6.134,0-11.127,5.589-11.127,12.556s4.994,12.556,11.127,12.556,11.136-5.632,11.136-12.565-4.994-12.548-11.136-12.548m0,27.9c-7.673,0-13.917-6.874-13.917-15.347s6.244-15.355,13.917-15.355S91.7,184.567,91.7,193.023c0,8.473-6.244,15.355-13.926,15.355" transform="translate(60.049 20.644)" fill="#ffdb5f"/>
    <rect id="Rectangle_6" data-name="Rectangle 6" width="7.707" height="3.99" transform="translate(133.812 231.582)" fill="#ffdb5f"/>
    <rect id="Rectangle_7" data-name="Rectangle 7" width="2.799" height="25.76" transform="translate(136.398 233.582)" fill="#ffdb5f"/>
    <path id="Path_21" data-name="Path 21" d="M79.779,184.526a14.236,14.236,0,0,0-9.273,3.581c-4.1,3.709-6.168,9.979-6.168,18.647,0,2.688.238,9.2.383,12.837a3.39,3.39,0,0,0,3.4,3.258h53.62a3.394,3.394,0,0,0,3.394-3.258c.145-3.641.383-10.149.383-12.837,0-8.669-2.067-14.938-6.168-18.647a14.167,14.167,0,0,0-9.273-3.573L96.018,209.876H93.841Zm41.965,41.114H68.124a6.177,6.177,0,0,1-6.193-5.938c-.179-4.466-.383-10.379-.383-12.948,0-9.519,2.39-16.5,7.12-20.766a16.687,16.687,0,0,1,12.088-4.211l.732.077L94.93,206.074l13.45-24.219.723-.077A16.645,16.645,0,0,1,121.191,186c4.73,4.262,7.129,11.238,7.129,20.766,0,2.6-.213,8.482-.383,12.948a6.181,6.181,0,0,1-6.193,5.929" transform="translate(42.685 51.217)" fill="#ffdb5f"/>
    <path id="Path_22" data-name="Path 22" d="M87.918,206.971c-8.056-8.388-23.615-10.379-23.777-10.379l-1.285-.153.6-12.284,2.782.136-.459,9.723c4.083.672,16.767,3.3,24.168,11.025Z" transform="translate(52.504 69.282)" fill="#ffdb5f"/>
    <rect id="Rectangle_8" data-name="Rectangle 8" width="38.426" height="2.789" transform="translate(116.806 258.661)" fill="#ffdb5f"/>
    <rect id="Rectangle_9" data-name="Rectangle 9" width="2.799" height="12.216" transform="translate(153.667 252.8)" fill="#ffdb5f"/>
    <path id="Path_23" data-name="Path 23" d="M94.956,206.208H74.284a11.26,11.26,0,0,1-11.255-11.246v-8.218h2.833v8.218a8.459,8.459,0,0,0,8.456,8.447H95a8.458,8.458,0,0,0,8.4-8.447v-8.218h2.8v8.218a11.262,11.262,0,0,1-11.238,11.246" transform="translate(53.803 88.718)" fill="#ffdb5f"/>
  </g>
</svg>
