<svg id="Component_16_1" data-name="Component 16 – 1" xmlns="http://www.w3.org/2000/svg" width="24.293" height="36" viewBox="0 0 24.293 36">
  <path id="Path_39" data-name="Path 39" d="M153.8,148.023a9.443,9.443,0,0,1-18.859,0q-.049-6.068,0-12.112a9.426,9.426,0,1,1,18.851-.008c.033,2.019,0,4.045,0,6.072s.033,4.029,0,6.048Zm2.694-5.51c0-2.629.033-4.753,0-6.886a12.136,12.136,0,0,0-24.239.049c-.049,4.151-.041,8.3,0,12.47a12.105,12.105,0,0,0,23.971,2.3c.57-2.8.089-5.616.269-7.928" transform="translate(-132.221 -124.15)" fill="#ffdb5f"/>
  <path id="Path_40" data-name="Path 40" d="M136.247,128.351c0,.676.041,1.351,0,2.027a1.268,1.268,0,0,1-1.416,1.327,1.253,1.253,0,0,1-1.27-1.327c-.033-1.294,0-2.58,0-3.874a1.307,1.307,0,0,1,1.262-1.49c.944-.041,1.416.554,1.432,1.49,0,.619-.008,1.229-.008,1.848" transform="translate(-122.758 -117.998)" fill="#ffdb5f"/>
</svg>
