<svg xmlns="http://www.w3.org/2000/svg" width="18.455" height="15.688" viewBox="0 0 18.455 15.688">
  <path id="Path_143" data-name="Path 143" d="M727.28,2529.25a2.949,2.949,0,0,0-2.1.865,2.982,2.982,0,0,0,0,4.219l6.513,6.529,6.513-6.529a3,3,0,0,0,0-4.219,3.06,3.06,0,0,0-4.2,0l-1.652,1.668a.938.938,0,0,1-1.315,0l-1.652-1.668a2.949,2.949,0,0,0-2.1-.865m4.411,13.842a.954.954,0,0,1-.658-.265l-7.171-7.186a4.83,4.83,0,0,1,6.835-6.826l.994,1,.994-1a4.828,4.828,0,0,1,6.828,6.826l-7.164,7.186a.954.954,0,0,1-.658.265" transform="translate(-722.463 -2527.404)" fill="#bababa"/>
</svg>
