<svg xmlns="http://www.w3.org/2000/svg" width="18.447" height="18.429" viewBox="0 0 18.447 18.429">
  <path id="Path_145" data-name="Path 145" d="M768.747,2541.81l-1.716-5.134,5.14-5.14Zm2.123-11.575-5.14,5.141-5.133-1.723Zm4.34-2.117a.969.969,0,0,0-.057-.25v-.078a.815.815,0,0,0-.186-.28.772.772,0,0,0-.264-.178h-.086a.737.737,0,0,0-.286-.136h-.043a.92.92,0,0,0-.279,0l-16.609,5.533a.927.927,0,0,0,0,1.76l7.872,2.616,2.624,7.872a.914.914,0,0,0,.872.637.929.929,0,0,0,.88-.637l5.534-16.608a1.03,1.03,0,0,0,.028-.251" transform="translate(-756.764 -2527.185)" fill="#bababa"/>
</svg>
