<svg id="Component_54_10" data-name="Component 54 – 10" xmlns="http://www.w3.org/2000/svg" width="64" height="64" viewBox="0 0 64 64">
  <circle id="Ellipse_21" data-name="Ellipse 21" cx="32" cy="32" r="32" fill="#ffdb5f"/>
  <path id="Icon_awesome-hand-holding" data-name="Icon awesome-hand-holding" d="M23.553,22.837a1.379,1.379,0,0,0-1.775,0l-3.85,3.079a2.653,2.653,0,0,1-1.667.583H11.333a.667.667,0,0,1,0-1.333H14.6a1.387,1.387,0,0,0,1.387-1.108A1.335,1.335,0,0,0,14.666,22.5H8a4.9,4.9,0,0,0-3.087,1.1L2.975,25.167H.667A.669.669,0,0,0,0,25.833v4a.669.669,0,0,0,.667.667H15.532a2.67,2.67,0,0,0,1.667-.583l6.3-5.041A1.333,1.333,0,0,0,23.553,22.837Z" transform="translate(20 5.5)" fill="none" stroke="#1a1a1a" stroke-width="2"/>
</svg>
