<svg xmlns="http://www.w3.org/2000/svg" width="120.898" height="120" viewBox="0 0 120.898 120">
  <g id="Group_176" data-name="Group 176" transform="translate(-194.087 -173.9)">
    <path id="Path_32" data-name="Path 32" d="M212.593,180.927c5.378,0,9.77,4.954,9.77,11.032s-4.393,11.024-9.77,11.024-9.755-4.947-9.755-11.024,4.37-11.032,9.755-11.032m0,24.51c6.739,0,12.225-6.047,12.225-13.478s-5.485-13.486-12.225-13.486-12.225,6.047-12.225,13.486,5.478,13.478,12.225,13.478" transform="translate(42.039 30.609)" fill="#ffdb5f"/>
    <path id="Path_33" data-name="Path 33" d="M253.958,216.7a2.965,2.965,0,0,1-2.977,2.854H231.433c-6.539-6.6-17.44-8.886-20.979-9.463l.077-1.608h31v3.131h2.454V200.88h-2.454v5.162H229.579l11.17-20.125a12.6,12.6,0,0,1,8.139,3.123c3.577,3.254,5.408,8.77,5.408,16.379,0,2.377-.215,8.093-.339,11.286m-9.324,11.286a7.417,7.417,0,0,1-7.424,7.416H219.062a7.411,7.411,0,0,1-7.416-7.416v-5.97h32.989Zm-40.728-8.432a2.972,2.972,0,0,1-2.985-2.854c-.123-3.208-.346-8.909-.346-11.271,0-7.609,1.823-13.125,5.416-16.371a12.512,12.512,0,0,1,8.139-3.146L225.3,206.042h-14.64l.215-4.47-2.454-.131-.523,10.794,1.131.139c.131,0,11.363,1.431,18.733,7.216ZM250.489,187.2a14.751,14.751,0,0,0-10.609-3.708l-.631.069-10.424,18.779V185.778h2.031V182.27H224.1v3.508h2.269V202.9l-10.74-19.341-.631-.069a14.727,14.727,0,0,0-10.609,3.708c-4.154,3.739-6.27,9.855-6.27,18.233,0,2.277.192,7.447.346,11.363a5.437,5.437,0,0,0,5.439,5.224h5.285v5.97a9.894,9.894,0,0,0,9.87,9.886H237.21a9.906,9.906,0,0,0,9.878-9.886v-5.97h3.885A5.43,5.43,0,0,0,256.4,216.8c.154-3.916.346-9.086.346-11.363,0-8.378-2.108-14.494-6.262-18.233" transform="translate(26.999 56.023)" fill="#ffdb5f"/>
    <path id="Path_34" data-name="Path 34" d="M306.715,278.544a5.412,5.412,0,1,0,0-.038Zm-5.439-65.438a5.437,5.437,0,1,1,1.577,3.823,5.387,5.387,0,0,1-1.577-3.87Zm-47-25.442a5.42,5.42,0,1,0,0-.038Zm-51.837,30.873a5.412,5.412,0,1,0,0-.038Zm5.439,54.537a5.447,5.447,0,1,1-5.439-5.447,5.444,5.444,0,0,1,5.439,5.447m98.973-8.247V221.3a8.245,8.245,0,1,0-6.947-12.894l-38.435-22.187a8.25,8.25,0,1,0-14.432-.131l-38.066,21.964a8.245,8.245,0,1,0-7.539,13.194v43.636a8.282,8.282,0,1,0,8.963,6.185l10.178-7.216-1.6-2.3-9.732,6.878A8.254,8.254,0,0,0,204.218,265v-43.89a8.3,8.3,0,0,0,4.977-3.3l20.041,12.024,1.446-2.408-20.287-12.2a8.187,8.187,0,0,0,.292-2.162,8.279,8.279,0,0,0-.4-2.523l38.5-22.226a8.138,8.138,0,0,0,3.947,1.969v13.886h2.816V190.334a8.211,8.211,0,0,0,4.124-1.923l39.066,22.564a8.3,8.3,0,0,0-.269,2.085,8,8,0,0,0,.392,2.485l-19.818,11.878,1.454,2.408,19.656-11.809a8.289,8.289,0,0,0,3.885,2.823v44.428a8.258,8.258,0,0,0-4.585,3.893l-8.678-6.124-1.6,2.293,9.386,6.632a8.714,8.714,0,0,0-.069,1.108,8.247,8.247,0,1,0,8.37-8.247Z" transform="translate(0 0)" fill="#ffdb5f"/>
  </g>
</svg>
