<svg xmlns="http://www.w3.org/2000/svg" width="22.904" height="16.036" viewBox="0 0 22.904 16.036">
  <g id="Group_152" data-name="Group 152" transform="translate(-1183.587 -1064.029)">
    <path id="Path_153" data-name="Path 153" d="M1195.29,1077.77c-4.936.116-8.151-4.1-9.163-5.716,1.151-1.851,4.138-5.618,8.719-5.726,4.91-.131,8.135,4.1,9.154,5.726-1.176,1.834-4.129,5.6-8.71,5.716m11.047-6.291c-.732-1.275-4.763-7.65-11.606-7.444-6.334.164-9.993,5.724-10.989,7.444a1.138,1.138,0,0,0,0,1.143c.716,1.25,4.573,7.444,11.318,7.444h.287c6.326-.165,10-5.726,10.99-7.444a1.133,1.133,0,0,0,0-1.143" transform="translate(0 0)" fill="#707070"/>
    <path id="Path_154" data-name="Path 154" d="M1188.5,1070.242a1.719,1.719,0,1,1,1.719-1.719,1.719,1.719,0,0,1-1.719,1.719m0-5.726a4.006,4.006,0,1,0,4,4.007,4.006,4.006,0,0,0-4-4.007" transform="translate(6.537 3.524)" fill="#707070"/>
  </g>
</svg>
