<svg xmlns="http://www.w3.org/2000/svg" width="51.977" height="21.342" viewBox="0 0 51.977 21.342">
  <path id="XMLID_34_" d="M9.556,2.751A3.193,3.193,0,0,1,7,3.96a3.62,3.62,0,0,1,.914-2.65A3.816,3.816,0,0,1,10.449,0a3.855,3.855,0,0,1-.893,2.751m.883,1.4c-1.411-.081-2.619.8-3.29.8s-1.706-.761-2.823-.741A4.17,4.17,0,0,0,.784,6.366C-.739,8.985.388,12.864,1.86,15c.721,1.056,1.584,2.213,2.721,2.173,1.076-.041,1.5-.7,2.8-.7s1.685.7,2.823.68c1.178-.02,1.919-1.056,2.64-2.112a9.261,9.261,0,0,0,1.178-2.427,3.825,3.825,0,0,1-2.295-3.482,3.906,3.906,0,0,1,1.858-3.269,4.024,4.024,0,0,0-3.147-1.706m8.153-2.944V17.037h2.457V11.625h3.4a5.024,5.024,0,0,0,5.29-5.219,4.965,4.965,0,0,0-5.208-5.2h-5.94Zm2.457,2.071h2.833c2.132,0,3.35,1.137,3.35,3.137s-1.218,3.147-3.361,3.147H21.049ZM34.228,17.159a4.065,4.065,0,0,0,3.625-2.02H37.9v1.9h2.274V9.158c0-2.284-1.828-3.757-4.64-3.757C32.928,5.4,31,6.894,30.928,8.945h2.213A2.157,2.157,0,0,1,35.466,7.33c1.5,0,2.345.7,2.345,1.99v.873l-3.066.183c-2.853.173-4.4,1.34-4.4,3.371C30.349,15.8,31.943,17.159,34.228,17.159Zm.66-1.878c-1.31,0-2.142-.629-2.142-1.594,0-.995.8-1.574,2.335-1.665l2.731-.173v.893A2.67,2.67,0,0,1,34.888,15.28Zm8.325,6.061c2.4,0,3.523-.914,4.508-3.686l4.315-12.1h-2.5L46.645,14.9h-.051L43.7,5.554H41.132l4.163,11.524-.223.7A1.953,1.953,0,0,1,43,19.423c-.193,0-.569-.02-.721-.041v1.9A6.768,6.768,0,0,0,43.213,21.342Z" transform="translate(-0.059)" fill="#fff"/>
</svg>
