<svg xmlns="http://www.w3.org/2000/svg" width="106.424" height="120" viewBox="0 0 106.424 120">
  <g id="Group_2" data-name="Group 2" transform="translate(-126.931 -174.304)">
    <path id="Path_24" data-name="Path 24" d="M147.341,181.537c-5.229,0-9.487,4.8-9.487,10.682s4.259,10.682,9.487,10.682,9.487-4.8,9.487-10.682-4.228-10.682-9.487-10.682m0,23.8c-6.54,0-11.869-5.88-11.869-13.095s5.329-13.087,11.869-13.087,11.877,5.872,11.877,13.087-5.329,13.095-11.877,13.095" transform="translate(57.715 32.787)" fill="#ffdb5f"/>
    <rect id="Rectangle_10" data-name="Rectangle 10" width="6.563" height="3.405" transform="translate(201.627 240.304)" fill="#ffdb5f"/>
    <rect id="Rectangle_11" data-name="Rectangle 11" width="2.382" height="21.962" transform="translate(203.838 242.003)" fill="#ffdb5f"/>
    <path id="Path_25" data-name="Path 25" d="M148.9,185.337a12.087,12.087,0,0,0-7.9,3.056c-3.545,3.188-5.3,8.533-5.3,15.887,0,2.288.2,7.851.326,10.946a2.893,2.893,0,0,0,2.9,2.777h45.707a2.893,2.893,0,0,0,2.9-2.777c.124-3.1.326-8.65.326-10.946,0-7.385-1.769-12.738-5.26-15.9a12.108,12.108,0,0,0-7.9-3.056L162.71,206.942h-1.862Zm35.731,35.048H138.925a5.268,5.268,0,0,1-5.291-5.066c-.14-3.817-.326-8.82-.326-11.039,0-8.114,2.048-14.064,6.1-17.687a14.225,14.225,0,0,1,10.31-3.607l.613.062,11.442,20.658,11.45-20.658.621-.062a14.273,14.273,0,0,1,10.3,3.607c4.026,3.623,6.1,9.573,6.1,17.687,0,2.219-.178,7.23-.326,11.039a5.27,5.27,0,0,1-5.3,5.066" transform="translate(43.099 58.512)" fill="#ffdb5f"/>
    <path id="Path_26" data-name="Path 26" d="M155.9,204.662c-6.865-7.152-20.131-8.828-20.262-8.851l-1.109-.132.512-10.465,2.382.116-.4,8.277c3.483.574,14.281,2.808,20.6,9.4Z" transform="translate(51.357 73.724)" fill="#ffdb5f"/>
    <rect id="Rectangle_12" data-name="Rectangle 12" width="32.76" height="2.381" transform="translate(187.137 263.384)" fill="#ffdb5f"/>
    <rect id="Rectangle_13" data-name="Rectangle 13" width="2.382" height="10.418" transform="translate(218.562 258.388)" fill="#ffdb5f"/>
    <path id="Path_27" data-name="Path 27" d="M161.907,204.227H144.282a9.6,9.6,0,0,1-9.588-9.588v-7.005h2.389v7.005a7.211,7.211,0,0,0,7.2,7.207h17.625a7.224,7.224,0,0,0,7.214-7.207v-7.005H171.5v7.005a9.606,9.606,0,0,1-9.6,9.588" transform="translate(52.458 90.077)" fill="#ffdb5f"/>
    <path id="Path_28" data-name="Path 28" d="M163.965,183.233l.039-1.3a5.1,5.1,0,0,1,10.2,0l.047,1.3H184.74V194.8H152.166V183.256Zm23.459,2.289v-4.934h-10.69a7.778,7.778,0,0,0-15.267,0H149.49v4.934H126.931v96.79H173.4v-2.676H129.607V188.19H149.49v6.571H135.317v77.668H173.4v-2.676H137.985V197.437H199.13v12.412H201.8V194.76H187.424V188.19h19.456v21.659h2.669V185.521Z" transform="translate(0 0)" fill="#ffdb5f"/>
    <path id="Path_29" data-name="Path 29" d="M142.56,178.2l-6.92,9.774-4.585-4.568-1.885,1.885,6.811,6.812,8.758-12.35Z" transform="translate(15.134 26.36)" fill="#ffdb5f"/>
    <path id="Path_30" data-name="Path 30" d="M142.56,181.335l-6.92,9.775-4.585-4.576-1.885,1.892,6.811,6.812,8.758-12.365Z" transform="translate(15.134 47.515)" fill="#ffdb5f"/>
    <path id="Path_31" data-name="Path 31" d="M131.056,189.385l-1.885,1.894,6.811,6.811,8.758-12.358-2.18-1.544-6.927,9.775Z" transform="translate(15.137 66.794)" fill="#ffdb5f"/>
    <rect id="Rectangle_14" data-name="Rectangle 14" width="22.993" height="2.669" transform="translate(166.952 209.375)" fill="#ffdb5f"/>
    <rect id="Rectangle_15" data-name="Rectangle 15" width="22.993" height="2.669" transform="translate(166.952 233.657)" fill="#ffdb5f"/>
    <rect id="Rectangle_16" data-name="Rectangle 16" width="10.535" height="2.669" transform="translate(166.952 257.293)" fill="#ffdb5f"/>
  </g>
</svg>
