<svg xmlns="http://www.w3.org/2000/svg" width="16.468" height="17.28" viewBox="0 0 16.468 17.28">
  <g id="Group_49" data-name="Group 49" transform="translate(-1469.817 -1432.312)">
    <path id="Path_156" data-name="Path 156" d="M1486.284,1433.059v.747a.734.734,0,0,1-.22.532.718.718,0,0,1-.527.215h-14.973a.719.719,0,0,1-.528-.215.737.737,0,0,1-.22-.532v-.747a.723.723,0,0,1,.22-.527.7.7,0,0,1,.528-.221h14.973a.7.7,0,0,1,.527.221.721.721,0,0,1,.22.527" transform="translate(0.001 0.001)" fill="#dcdcdc"/>
    <path id="Path_157" data-name="Path 157" d="M1473.207,1432.311h.748a.736.736,0,0,1,.532.221.716.716,0,0,1,.216.527v3a.744.744,0,0,1-.748.746h-.748a.7.7,0,0,1-.527-.22.72.72,0,0,1-.22-.526v-3a.753.753,0,0,1,.746-.748" transform="translate(11.576 0.001)" fill="#dcdcdc"/>
    <path id="Path_158" data-name="Path 158" d="M1470.564,1432.311h.747a.736.736,0,0,1,.532.221.718.718,0,0,1,.215.527v3a.743.743,0,0,1-.747.746h-.747a.7.7,0,0,1-.528-.22.723.723,0,0,1-.22-.526v-3a.754.754,0,0,1,.748-.748" transform="translate(0.001 0.001)" fill="#dcdcdc"/>
    <path id="Path_159" data-name="Path 159" d="M1471.425,1438.292a1,1,0,0,1-.6-1.8l4.007-3.006a1.018,1.018,0,0,1,1.183,0l4,2.823a1,1,0,0,1,.241,1.393,1,1,0,0,1-1.4.242l-3.42-2.415-3.4,2.566a1.034,1.034,0,0,1-.6.2" transform="translate(2.657 4.293)" fill="#dcdcdc"/>
    <path id="Path_160" data-name="Path 160" d="M1472.17,1443.673a1,1,0,0,1-1-1v-8.008a1,1,0,1,1,2,0v8.008a1,1,0,0,1-1,1" transform="translate(5.918 5.919)" fill="#dcdcdc"/>
  </g>
</svg>
