<svg id="Layer_1" data-name="Layer 1" xmlns="http://www.w3.org/2000/svg" viewBox="0 0 1342.99 290.83"><defs><style>.cls-1{fill:#ffdb5f;}.cls-2{fill:#2d2d2d;}</style></defs><polygon class="cls-1" points="202.34 241.78 264 241.78 249.34 218.47 175.17 100.79 125.84 179.21 86.54 241.78 148.16 241.78 148.16 288.07 0 288.07 60.4 190.36 143.89 51.14 174.57 0 205.99 51.81 287.35 185.92 287.65 186.41 350.5 288.07 202.34 288.07 202.34 241.78"/><path class="cls-2" d="M389.87,288.07V127.9h32.61v133h81.07v27.21Z"/><path class="cls-2" d="M510.83,208.31q0-24.67,7.38-41.42a76.11,76.11,0,0,1,15-22.14,63.13,63.13,0,0,1,20.88-14.54q15.09-6.39,34.81-6.39,35.7,0,57.12,22.14t21.43,61.58q0,39.12-21.26,61.2t-56.85,22.09q-36,0-57.28-22T510.83,208.31Zm33.6-1.1q0,27.43,12.66,41.59T589.26,263q19.5,0,32-14t12.51-42.14q0-27.75-12.18-41.42t-32.33-13.66q-20.16,0-32.5,13.83T544.43,207.21Z"/><path class="cls-2" d="M689.54,126.57h64.55q19.17,0,28.59,1.6a42,42,0,0,1,16.85,6.67,41.48,41.48,0,0,1,12.4,13.49,36.62,36.62,0,0,1,5,18.89,38.3,38.3,0,0,1-22.69,35q14.76,4.29,22.69,14.65a38.87,38.87,0,0,1,7.94,24.34,47.94,47.94,0,0,1-5.13,21.43,43.05,43.05,0,0,1-14,16.63q-8.87,6.22-21.86,7.66-8.16.88-39.33,1.1h-55Zm32.6,26.88V190.8h21.38q19.05,0,23.68-.55,8.37-1,13.17-5.79t4.79-12.61q0-7.48-4.13-12.17T768.74,154q-4.85-.54-27.87-.55Zm0,64.23v43.18h30.19q17.63,0,22.36-1a20.24,20.24,0,0,0,11.85-6.44q4.56-5.13,4.57-13.72a21.08,21.08,0,0,0-3.53-12.34A20,20,0,0,0,777.39,220q-6.66-2.31-28.92-2.31Z"/><path class="cls-2" d="M991,288.07H955.48l-14.1-36.68H876.82l-13.33,36.68H828.9l62.91-161.5h34.48Zm-60-63.89-22.25-59.93-21.81,59.93Z"/><path class="cls-2" d="M1005,288.07V126.57h32.61v63.57h63.89V126.57h32.61v161.5h-32.61V217.46h-63.89v70.61Z"/><path class="cls-2" d="M1164.09,288.07V126.57h31.72l66.1,107.85V126.57h30.29v161.5h-32.71l-65.11-105.31V288.07Z"/><path class="cls-2" d="M1325.12,162.22A17.83,17.83,0,1,1,1343,144.46,17.88,17.88,0,0,1,1325.12,162.22Zm.08-3.48a14.35,14.35,0,1,0-14.39-14.38A14.44,14.44,0,0,0,1325.2,158.74Z"/><path class="cls-2" d="M1321.1,153.91h-3.81V135h9.06a8.47,8.47,0,0,1,2.91.44,4.79,4.79,0,0,1,3.29,4.27,5.42,5.42,0,0,1-.33,2.73,4.64,4.64,0,0,1-2.79,2.64c-.55.22-1.13.35-1.7.52l-.2,0,.22.11a4.31,4.31,0,0,1,2,1.58c.68,1,1.35,2.09,2,3.15s1.24,2.13,1.86,3.19l.14.25h-4.5a.3.3,0,0,1-.31-.2c-.77-1.47-1.53-2.94-2.34-4.39a14.14,14.14,0,0,0-1.19-1.71,3.85,3.85,0,0,0-3-1.48c-.41,0-.82,0-1.25,0Zm0-10.77h3.16a8.19,8.19,0,0,0,1,0,16,16,0,0,0,1.68-.3,2,2,0,0,0,1.26-.92,2.39,2.39,0,0,0-1.16-3.53,5.88,5.88,0,0,0-2.11-.35c-1.22,0-2.44,0-3.66,0l-.16,0Z"/></svg>