<svg id="Component_84_1" data-name="Component 84 – 1" xmlns="http://www.w3.org/2000/svg" width="17.327" height="20" viewBox="0 0 17.327 20">
  <g id="Group_52" data-name="Group 52" transform="translate(-681.706 -381.95)">
    <path id="Path_161" data-name="Path 161" d="M686.862,381.95a3.562,3.562,0,0,1,1.361.268,3.681,3.681,0,0,1,1.149.773,3.588,3.588,0,0,1,1.047,2.516,3.567,3.567,0,0,1-.275,1.361,3.5,3.5,0,0,1-.772,1.149,3.512,3.512,0,0,1-2.51,1.041,3.545,3.545,0,0,1-3.283-2.191,3.506,3.506,0,0,1,0-2.721,3.517,3.517,0,0,1,.766-1.156,3.637,3.637,0,0,1,1.156-.773,3.512,3.512,0,0,1,1.361-.268" transform="translate(8.614 0)" fill="#ffdb5f"/>
    <g id="Group_52-2" data-name="Group 52" transform="translate(681.706 384.173)">
      <path id="Path_162" data-name="Path 162" d="M695.674,392.427v-3.966c0-.173-.077-.326-.089-.5-.039,0-.071.019-.109.019a4.4,4.4,0,0,1-1.667-.326,4.332,4.332,0,0,1-1.418-.951,4.375,4.375,0,0,1-1.271-3.072,4.424,4.424,0,0,1,.2-1,6.188,6.188,0,0,0-.818-.288,5.988,5.988,0,0,0-6.776,5.927v4.151l-1.6,1.609a1.456,1.456,0,0,0,1.022,2.478h3v.307a3.568,3.568,0,0,0,7.108,0v-.307h2.989a1.455,1.455,0,0,0,1.335-.894,1.479,1.479,0,0,0-.306-1.584Zm-4.2,4.394a1.806,1.806,0,0,1-3.551,0v-.307h3.551Z" transform="translate(-681.706 -382.298)" fill="#bababa"/>
    </g>
  </g>
  <path id="Path_163" data-name="Path 163" d="M691.471,396.82a1.806,1.806,0,0,1-3.551,0v-.307h3.551Zm5.8-2.784-1.6-1.609v-3.966a6.1,6.1,0,0,0-5.173-6.112,5.988,5.988,0,0,0-6.776,5.926v4.151l-1.6,1.609a1.456,1.456,0,0,0,1.022,2.478h3v.307a3.568,3.568,0,0,0,7.108,0v-.307h2.989a1.455,1.455,0,0,0,1.335-.894,1.479,1.479,0,0,0-.306-1.584" transform="translate(-681.706 -380.075)" fill="#bababa" opacity="0"/>
</svg>
