<svg id="Component_54_10" data-name="Component 54 – 10" xmlns="http://www.w3.org/2000/svg" width="31.581" height="20" viewBox="0 0 31.581 20">
  <path id="Path_36" data-name="Path 36" d="M285.306,9.622v1.165a.965.965,0,0,1-.295.711.984.984,0,0,1-.7.287H254.723a.989.989,0,0,1-.711-.287.958.958,0,0,1-.287-.711V9.622a1,1,0,0,1,.287-.711,1.014,1.014,0,0,1,.711-.28h29.584a.981.981,0,0,1,1,.991" transform="translate(-253.725 -0.204)" fill="#ffdb5f"/>
  <path id="Path_37" data-name="Path 37" d="M285.306,8.515V9.673a.965.965,0,0,1-.295.711.954.954,0,0,1-.7.287H254.723a.982.982,0,0,1-1-1V8.515a.97.97,0,0,1,.287-.711.989.989,0,0,1,.711-.287h29.584a.994.994,0,0,1,1,1" transform="translate(-253.725 -7.517)" fill="#ffdb5f"/>
  <path id="Path_38" data-name="Path 38" d="M285.306,10.881v.106a.965.965,0,0,1-.295.711.954.954,0,0,1-.7.287H254.723a.982.982,0,0,1-1-1v-.106a.97.97,0,0,1,.287-.711.989.989,0,0,1,.711-.287h29.584a.994.994,0,0,1,1,1" transform="translate(-253.725 8.014)" fill="#ffdb5f"/>
</svg>
