<svg id="upload-bg-transparent" xmlns="http://www.w3.org/2000/svg" width="200" height="200" viewBox="0 0 200 200">
  <circle id="Ellipse_8" data-name="Ellipse 8" cx="100" cy="100" r="100" fill="#515151" opacity="0.8"/>
  <g id="Group_48" data-name="Group 48" transform="translate(-1392.286 -1355.887)">
    <path id="Path_156" data-name="Path 156" d="M1514.754,1434.352v2.039a2,2,0,0,1-.6,1.453,1.96,1.96,0,0,1-1.437.588h-40.857a1.962,1.962,0,0,1-1.439-.588,2.01,2.01,0,0,1-.6-1.453v-2.039a1.974,1.974,0,0,1,.6-1.437,1.917,1.917,0,0,1,1.439-.6h40.857a1.916,1.916,0,0,1,1.438.6,1.967,1.967,0,0,1,.6,1.438" transform="translate(0.001 0.001)" fill="#dcdcdc"/>
    <path id="Path_157" data-name="Path 157" d="M1474.5,1432.311h2.041a2.007,2.007,0,0,1,1.453.6,1.954,1.954,0,0,1,.588,1.438v8.176a2.031,2.031,0,0,1-2.041,2.037H1474.5a1.917,1.917,0,0,1-1.437-.6,1.964,1.964,0,0,1-.6-1.436v-8.176a2.054,2.054,0,0,1,2.037-2.041" transform="translate(36.16 0.001)" fill="#dcdcdc"/>
    <path id="Path_158" data-name="Path 158" d="M1471.857,1432.311h2.039a2.007,2.007,0,0,1,1.453.6,1.96,1.96,0,0,1,.586,1.438v8.176a2.027,2.027,0,0,1-2.039,2.037h-2.039a1.915,1.915,0,0,1-1.439-.6,1.973,1.973,0,0,1-.6-1.436v-8.176a2.057,2.057,0,0,1,2.041-2.041" transform="translate(0.001 0.001)" fill="#dcdcdc"/>
    <path id="Path_159" data-name="Path 159" d="M1473.158,1446.932a2.733,2.733,0,0,1-1.645-4.918l10.934-8.2a2.778,2.778,0,0,1,3.229,0l10.92,7.705a2.728,2.728,0,0,1,.658,3.8,2.734,2.734,0,0,1-3.83.66l-9.332-6.59-9.289,7a2.821,2.821,0,0,1-1.645.543" transform="translate(8.298 13.411)" fill="#dcdcdc"/>
    <path id="Path_160" data-name="Path 160" d="M1473.9,1460.977a2.723,2.723,0,0,1-2.73-2.73v-21.852a2.729,2.729,0,1,1,5.459,0v21.852a2.723,2.723,0,0,1-2.729,2.73" transform="translate(18.488 18.489)" fill="#dcdcdc"/>
  </g>
</svg>
