<svg xmlns="http://www.w3.org/2000/svg" width="369.43" height="80" viewBox="0 0 369.43 80">
  <g id="Group_224" data-name="Group 224" transform="translate(-524.79 -677.497)">
    <g id="Group_170" data-name="Group 170" transform="translate(524.79 677.497)">
      <path id="Path_268" data-name="Path 268" d="M580.451,744.006h16.96l-4.032-6.413-20.4-32.371-13.571,21.571L548.6,744.006h16.95v12.733H524.79L541.4,729.861l22.968-38.3,8.438-14.067,8.643,14.252,22.379,36.89.083.136,17.291,27.964H580.451Z" transform="translate(-524.79 -677.497)" fill="#ffdb5f"/>
    </g>
    <g id="Group_171" data-name="Group 171" transform="translate(632.034 711.557)">
      <path id="Path_269" data-name="Path 269" d="M914.657,849.454V805.393h8.97v36.576h22.3v7.485Z" transform="translate(-914.657 -804.272)" fill="#2f2f2f"/>
      <path id="Path_270" data-name="Path 270" d="M1035.616,824.56a28.254,28.254,0,0,1,2.03-11.394,20.915,20.915,0,0,1,4.137-6.091,17.289,17.289,0,0,1,5.742-4,24.389,24.389,0,0,1,9.576-1.758q9.819,0,15.712,6.091t5.895,16.94q0,10.758-5.849,16.833t-15.637,6.076q-9.909,0-15.758-6.045T1035.616,824.56Zm9.243-.3q0,7.546,3.485,11.44a11.98,11.98,0,0,0,17.651.03q3.439-3.864,3.44-11.591,0-7.636-3.349-11.394a12.406,12.406,0,0,0-17.833.046Q1044.858,816.59,1044.859,824.256Z" transform="translate(-1002.343 -801.317)" fill="#2f2f2f"/>
      <path id="Path_271" data-name="Path 271" d="M1214.327,804.071h17.758a51.364,51.364,0,0,1,7.864.439,11.563,11.563,0,0,1,4.636,1.833,11.4,11.4,0,0,1,3.409,3.712,10.058,10.058,0,0,1,1.364,5.2,10.531,10.531,0,0,1-6.242,9.636,11.694,11.694,0,0,1,6.242,4.03,10.7,10.7,0,0,1,2.182,6.7,13.2,13.2,0,0,1-1.409,5.894,11.88,11.88,0,0,1-3.849,4.576,12.711,12.711,0,0,1-6.015,2.106q-2.243.243-10.819.3h-15.122Zm8.97,7.394v10.273h5.879q5.243,0,6.515-.152a5.928,5.928,0,0,0,3.621-1.591,4.688,4.688,0,0,0,1.318-3.47,4.875,4.875,0,0,0-1.136-3.348,5.146,5.146,0,0,0-3.379-1.561q-1.334-.151-7.667-.151Zm0,17.667V841.01h8.3a40.631,40.631,0,0,0,6.152-.272,5.562,5.562,0,0,0,3.257-1.773,5.459,5.459,0,0,0,1.258-3.773,5.8,5.8,0,0,0-.97-3.394,5.482,5.482,0,0,0-2.8-2.03q-1.834-.636-7.955-.636Z" transform="translate(-1131.894 -803.313)" fill="#2f2f2f"/>
      <path id="Path_272" data-name="Path 272" d="M1398.27,848.5h-9.758l-3.879-10.091h-17.758l-3.667,10.091h-9.515l17.3-44.425h9.485Zm-16.516-17.576-6.121-16.485-6,16.485Z" transform="translate(-1232.923 -803.313)" fill="#2f2f2f"/>
      <path id="Path_273" data-name="Path 273" d="M1529.831,848.5V804.071h8.97v17.485h17.576V804.071h8.97V848.5h-8.97V829.071H1538.8V848.5Z" transform="translate(-1360.609 -803.313)" fill="#2f2f2f"/>
      <path id="Path_274" data-name="Path 274" d="M1688.876,848.5V804.071h8.728l18.182,29.667V804.071h8.333V848.5h-9l-17.91-28.97V848.5Z" transform="translate(-1475.905 -803.313)" fill="#2f2f2f"/>
    </g>
    <g id="Group_173" data-name="Group 173" transform="translate(884.397 712.311)">
      <g id="Group_172" data-name="Group 172">
        <path id="Path_275" data-name="Path 275" d="M1836.98,813.867a4.9,4.9,0,1,1,4.915-4.885A4.917,4.917,0,0,1,1836.98,813.867Zm.023-.957a3.949,3.949,0,1,0-3.96-3.957A3.971,3.971,0,0,0,1837,812.91Z" transform="translate(-1832.074 -804.058)" fill="#2f2f2f"/>
        <path id="Path_276" data-name="Path 276" d="M1843.131,817.687h-1.046v-5.2l.063,0q1.213,0,2.427,0a2.35,2.35,0,0,1,.8.121,1.328,1.328,0,0,1,.905,1.177,1.507,1.507,0,0,1-.091.751,1.279,1.279,0,0,1-.768.726c-.151.059-.312.095-.468.141l-.053.013c.026.013.042.021.059.028a1.187,1.187,0,0,1,.544.436c.187.286.371.573.548.865s.343.586.514.879l.038.067c-.023,0-.041,0-.059,0-.393,0-.786,0-1.179,0a.085.085,0,0,1-.086-.055c-.212-.4-.42-.81-.643-1.208a3.787,3.787,0,0,0-.326-.47,1.061,1.061,0,0,0-.836-.407c-.112,0-.225,0-.343,0Zm0-2.964c.294,0,.581,0,.867,0a2.08,2.08,0,0,0,.273-.01,4.246,4.246,0,0,0,.462-.083.559.559,0,0,0,.348-.252.657.657,0,0,0-.321-.971,1.628,1.628,0,0,0-.581-.1c-.335,0-.67,0-1.006,0-.014,0-.028,0-.042,0Z" transform="translate(-1839.331 -810.162)" fill="#2f2f2f"/>
      </g>
    </g>
  </g>
</svg>
