<svg xmlns="http://www.w3.org/2000/svg" width="203.449" height="40" viewBox="0 0 203.449 40">
  <g id="logo" transform="translate(0 0)">
    <path id="Path_1" data-name="Path 1" d="M25.54,57.98V49.737a1.37,1.37,0,0,0-1.378-1.37H14.6l8.534-16.476A1.37,1.37,0,0,0,21.916,29.9H14.56L0,57.992Z" transform="translate(0 -17.992)" fill="#ffdb5f"/>
    <path id="Path_2" data-name="Path 2" d="M39.53,9.614h8.761a1.39,1.39,0,0,0,1.223-.737l3.58-6.886A1.358,1.358,0,0,0,53.047.653,1.35,1.35,0,0,0,51.884,0H44.528Z" transform="translate(-23.787 0)" fill="#ffdb5f"/>
    <path id="Path_3" data-name="Path 3" d="M88.28,57.974V49.731a1.37,1.37,0,0,1,1.378-1.37h9.558L90.681,31.885a1.37,1.37,0,0,1,.056-1.334A1.354,1.354,0,0,1,91.9,29.89H99.26l14.56,28.1Z" transform="translate(-53.123 -17.986)" fill="#ffdb5f"/>
    <path id="Path_4" data-name="Path 4" d="M92.189,9.614,87.2,0H79.836a1.366,1.366,0,0,0-1.195,1.991L82.2,8.865A1.366,1.366,0,0,0,83.4,9.61Z" transform="translate(-47.231 0)" fill="#ffdb5f"/>
    <path id="Path_5" data-name="Path 5" d="M224.82,53.109h-6.476V35.319h6.476Zm6.607-22.489h-19.7V58.4h19.7Z" transform="translate(-127.409 -18.426)" fill="#ffdb5f"/>
    <path id="Path_6" data-name="Path 6" d="M330.916,45.431l1.868-10.3,1.971,10.323Zm7.2-14.851H327.4L322.31,58.39h6.249L329.917,51h5.934l1.43,7.391h6.237Z" transform="translate(-193.951 -18.402)" fill="#ffdb5f"/>
    <path id="Path_7" data-name="Path 7" d="M162.26,30.62h6.619V53.113h10.478V58.4h-17.1Z" transform="translate(-97.64 -18.426)" fill="#ffdb5f"/>
    <path id="Path_8" data-name="Path 8" d="M276.587,42.091V35.3h2.971a3.414,3.414,0,1,1-.064,6.826h-2.915m0,10.976V46.273h2.979a3.405,3.405,0,1,1-.064,6.81Zm6.4,5.289a6.726,6.726,0,0,0,6.726-6.726v-.916a6.711,6.711,0,0,0-4.78-6.428h0a6.73,6.73,0,0,0,3.847-6.073v-.956a6.726,6.726,0,0,0-6.726-6.718H270V58.364Z" transform="translate(-162.473 -18.396)" fill="#ffdb5f"/>
    <path id="Path_9" data-name="Path 9" d="M401.7,30.56h-6.615V41.189H388.6V30.56H381.99v27.8H388.6V46.753h6.487V58.362H401.7V30.56Z" transform="translate(-229.863 -18.39)" fill="#ffdb5f"/>
    <path id="Path_10" data-name="Path 10" d="M453.45,30.56V44.319L446.967,30.56H440.36v27.8h6.607V43.6l6.957,14.763h6.141V30.56Z" transform="translate(-264.988 -18.39)" fill="#ffdb5f"/>
    <path id="Path_11" data-name="Path 11" d="M497.545,36.5a2.632,2.632,0,1,1,1.868-.773,2.632,2.632,0,0,1-1.868.773m0-5.942a3.309,3.309,0,1,0,2.344.969,3.309,3.309,0,0,0-2.344-.969" transform="translate(-297.41 -18.39)" fill="#ffdb5f"/>
    <path id="Path_12" data-name="Path 12" d="M500.263,35.716h-.49V34.589h.49a.571.571,0,1,1,0,1.119Zm1.517-.569A1.147,1.147,0,0,0,500.637,34H498.67v3.72h1.091V36.326L500.9,37.72h1.087l-1.195-1.454a1.147,1.147,0,0,0,.988-1.123" transform="translate(-300.076 -20.46)" fill="#ffdb5f"/>
  </g>
</svg>
