<svg xmlns="http://www.w3.org/2000/svg" width="20" height="20" viewBox="0 0 20 20">
  <path id="globe-alt" d="M10,.25a9.625,9.625,0,0,1,7.072,2.934A9.643,9.643,0,0,1,20,10.25a9.643,9.643,0,0,1-2.927,7.066A9.625,9.625,0,0,1,10,20.25a9.625,9.625,0,0,1-7.072-2.934A9.645,9.645,0,0,1,0,10.25,9.64,9.64,0,0,1,2.927,3.184,9.626,9.626,0,0,1,10,.25Zm6.908,6.01A7.585,7.585,0,0,0,12.6,2.692,14.827,14.827,0,0,1,13.958,6.26ZM9.977,2.269A13.341,13.341,0,0,0,8.1,6.259H11.9a14.279,14.279,0,0,0-1.921-3.99Zm-7.728,10H5.621A17.336,17.336,0,0,1,5.48,10.25a17.336,17.336,0,0,1,.141-2.019H2.248a9.548,9.548,0,0,0-.234,2.019A9.548,9.548,0,0,0,2.248,12.269Zm.843,1.972A7.585,7.585,0,0,0,7.4,17.808,14.827,14.827,0,0,1,6.042,14.24ZM6.042,6.259A14.784,14.784,0,0,1,7.4,2.691,7.588,7.588,0,0,0,3.091,6.259ZM9.977,18.231A14.279,14.279,0,0,0,11.9,14.24H8.1A13.341,13.341,0,0,0,9.977,18.231Zm2.342-5.962a13.093,13.093,0,0,0,.187-2.019,13.093,13.093,0,0,0-.187-2.019H7.635a17.336,17.336,0,0,0-.141,2.019,17.336,17.336,0,0,0,.141,2.019h4.684Zm.281,5.54a7.588,7.588,0,0,0,4.309-3.568H13.958A14.784,14.784,0,0,1,12.6,17.808Zm1.733-5.54h3.372a8.04,8.04,0,0,0,.281-2.019,8.04,8.04,0,0,0-.281-2.019H14.333a17.336,17.336,0,0,1,.141,2.019A17.336,17.336,0,0,1,14.333,12.269Z" transform="translate(0 -0.25)" fill="#bababa"/>
</svg>
