<svg xmlns="http://www.w3.org/2000/svg" width="21.033" height="15.9" viewBox="0 0 21.033 15.9">
  <g id="people" transform="translate(0.25 0.25)">
    <path id="Path_201" data-name="Path 201" d="M1.283,19.9A1.257,1.257,0,0,1,0,18.617c0-1.283,1.283-5.133,6.417-5.133s6.417,3.85,6.417,5.133A1.257,1.257,0,0,1,11.55,19.9Zm10.26-1.211v0Zm-.022-.072H1.311l-.018,0-.01,0A3.952,3.952,0,0,1,2.258,16.4a5.139,5.139,0,0,1,4.159-1.637A5.143,5.143,0,0,1,10.575,16.4a3.941,3.941,0,0,1,.975,2.207l-.028.005ZM1.29,18.688v0Zm5.127-7.772A2.567,2.567,0,1,1,8.983,8.35,2.567,2.567,0,0,1,6.417,10.917ZM2.567,8.35A3.85,3.85,0,1,0,6.417,4.5,3.85,3.85,0,0,0,2.567,8.35Zm9.065,5.493a7.546,7.546,0,0,1,1.579-.317q.452-.043.906-.042c5.133,0,6.417,3.85,6.417,5.133A1.134,1.134,0,0,1,19.25,19.9h-5.41a2.872,2.872,0,0,0,.277-1.283,5.887,5.887,0,0,0-1.4-3.727A6.813,6.813,0,0,0,11.632,13.843Zm2.587.924A5.1,5.1,0,0,1,18.275,16.4a3.927,3.927,0,0,1,.975,2.212H15.4A7.062,7.062,0,0,0,14.219,14.767Zm4.389-5.775a3.85,3.85,0,1,0-3.85,3.85A3.85,3.85,0,0,0,18.608,8.992Zm-3.85-2.567a2.567,2.567,0,1,1-2.567,2.567A2.567,2.567,0,0,1,14.758,6.425Z" transform="translate(0 -4.5)" fill="#bababa" stroke="#bababa" stroke-width="0.5" fill-rule="evenodd"/>
  </g>
</svg>
