<svg xmlns="http://www.w3.org/2000/svg" width="36" height="35.781" viewBox="0 0 36 35.781">
  <g id="facebook" transform="translate(-0.001 0)">
    <path id="Subtraction_3" data-name="Subtraction 3" d="M15.187,35.781h0c-.532-.084-1.067-.192-1.589-.324s-1.032-.284-1.535-.46-.993-.372-1.474-.589-.95-.455-1.406-.712-.9-.534-1.332-.828S7,32.26,6.6,31.931s-.792-.678-1.164-1.041-.731-.744-1.07-1.137S3.7,28.948,3.4,28.527s-.595-.863-.861-1.309-.52-.915-.747-1.385-.44-.963-.626-1.454-.356-1.007-.5-1.517S.4,21.816.3,21.288s-.174-1.08-.224-1.623S0,18.555,0,18a18.288,18.288,0,0,1,.093-1.84,18.043,18.043,0,0,1,.273-1.787c.119-.58.268-1.16.444-1.725s.377-1.115.605-1.654S1.9,9.93,2.172,9.42s.579-1.006.9-1.484.67-.942,1.036-1.386.756-.872,1.162-1.278.836-.8,1.278-1.162S7.46,3.4,7.936,3.074s.978-.627,1.484-.9,1.04-.532,1.573-.758,1.1-.432,1.654-.605S13.792.484,14.372.366A18.045,18.045,0,0,1,16.16.093a18.269,18.269,0,0,1,3.681,0,18.047,18.047,0,0,1,1.787.273c.58.119,1.16.268,1.725.444s1.115.377,1.654.605,1.063.481,1.573.758,1.006.578,1.484.9.942.67,1.386,1.036.872.756,1.278,1.162.8.836,1.162,1.278.715.91,1.036,1.386.626.978.9,1.484.532,1.039.758,1.573.432,1.1.605,1.654.325,1.145.444,1.725a18.045,18.045,0,0,1,.273,1.787A18.292,18.292,0,0,1,36,18c0,.555-.026,1.116-.076,1.665s-.125,1.088-.224,1.623-.22,1.057-.365,1.573-.311,1.021-.5,1.517-.4.981-.626,1.454-.479.936-.747,1.385-.556.887-.861,1.309-.63.833-.969,1.226-.7.775-1.07,1.137S29.8,31.6,29.4,31.931s-.823.645-1.251.938-.879.573-1.332.828-.93.5-1.406.712-.976.416-1.474.589-1.019.33-1.535.46-1.056.24-1.589.324V23.2h4.194l.8-5.2H20.812V14.625a3.584,3.584,0,0,1,.144-1.04,2.453,2.453,0,0,1,.484-.9,2.215,2.215,0,0,1,.394-.358,2.473,2.473,0,0,1,.509-.275,3.172,3.172,0,0,1,.634-.177,4.481,4.481,0,0,1,.768-.062h2.27V7.383h0c-.005,0-.526-.09-1.289-.177-.44-.051-.874-.091-1.288-.12-.517-.036-1.005-.054-1.452-.054-4.257,0-6.8,2.618-6.8,7V18h-4.57v5.2h4.57V35.781Z" transform="translate(0.001 0)" fill="#707070"/>
  </g>
</svg>
