<svg id="instagram-black" xmlns="http://www.w3.org/2000/svg" width="36" height="36" viewBox="0 0 36 36">
  <path id="Path_88" data-name="Path 88" d="M18,3.244c4.807,0,5.375.018,7.274.1a9.946,9.946,0,0,1,3.343.619,5.579,5.579,0,0,1,2.072,1.347,5.569,5.569,0,0,1,1.346,2.071,9.95,9.95,0,0,1,.619,3.343c.086,1.9.105,2.467.105,7.274s-.019,5.375-.105,7.274a9.946,9.946,0,0,1-.619,3.343,5.965,5.965,0,0,1-3.418,3.416,9.95,9.95,0,0,1-3.343.619c-1.9.086-2.467.105-7.274.105s-5.376-.019-7.274-.105a9.946,9.946,0,0,1-3.343-.619,5.577,5.577,0,0,1-2.072-1.346,5.577,5.577,0,0,1-1.344-2.071,9.95,9.95,0,0,1-.619-3.343c-.086-1.9-.1-2.467-.1-7.274s.018-5.375.1-7.274a9.946,9.946,0,0,1,.619-3.343A5.577,5.577,0,0,1,5.314,5.311,5.577,5.577,0,0,1,7.386,3.965a9.95,9.95,0,0,1,3.343-.619c1.9-.086,2.467-.1,7.274-.1M18,0c-4.886,0-5.5.018-7.419.105A13.213,13.213,0,0,0,6.211.944,8.831,8.831,0,0,0,3.023,3.023,8.831,8.831,0,0,0,.944,6.211,13.212,13.212,0,0,0,.108,10.58C.021,12.5,0,13.111,0,18s.021,5.5.108,7.421a13.184,13.184,0,0,0,.836,4.368,8.841,8.841,0,0,0,2.079,3.187,8.823,8.823,0,0,0,3.189,2.078,13.193,13.193,0,0,0,4.369.837C12.5,35.978,13.113,36,18,36s5.5-.02,7.421-.108a13.173,13.173,0,0,0,4.366-.837,9.2,9.2,0,0,0,5.266-5.266,13.192,13.192,0,0,0,.837-4.369C35.977,23.5,36,22.887,36,18s-.021-5.5-.108-7.421a13.155,13.155,0,0,0-.837-4.366,8.831,8.831,0,0,0-2.078-3.189A8.843,8.843,0,0,0,29.786.945,13.161,13.161,0,0,0,25.42.109C23.5.022,22.889,0,18,0Z" fill="#707070"/>
  <path id="Path_89" data-name="Path 89" d="M133.774,124.55a9.243,9.243,0,1,0,9.243,9.243h0a9.241,9.241,0,0,0-9.244-9.243Zm0,15.244a6,6,0,1,1,6-6A6,6,0,0,1,133.774,139.794Z" transform="translate(-115.774 -115.793)" fill="#707070"/>
  <circle id="Ellipse_7" data-name="Ellipse 7" cx="2.16" cy="2.16" r="2.16" transform="translate(25.449 6.231)" fill="#707070"/>
</svg>
