<svg xmlns="http://www.w3.org/2000/svg" width="36.171" height="36" viewBox="0 0 36.171 36">
  <g id="linkedin" transform="translate(-61.8)">
    <path id="Path_47" data-name="Path 47" d="M95.229,0H64.543A2.928,2.928,0,0,0,61.8,2.571V33.429A2.675,2.675,0,0,0,64.543,36H95.229a2.928,2.928,0,0,0,2.743-2.571V2.571A2.675,2.675,0,0,0,95.229,0ZM72.6,30.686H67.286V13.543H72.6ZM69.857,11.143a3.086,3.086,0,1,1,3.086-3.086A3.073,3.073,0,0,1,69.857,11.143Zm22.8,19.543H87.343v-8.4c0-2.057,0-4.629-2.743-4.629s-3.257,2.229-3.257,4.457v8.571H76.029V13.543h5.143v2.4A5.406,5.406,0,0,1,86.143,13.2c5.486,0,6.343,3.6,6.343,8.229Z" fill="#707070"/>
  </g>
</svg>
