<svg xmlns="http://www.w3.org/2000/svg" width="21" height="21" viewBox="0 0 21 21">
  <path id="Path_84" data-name="Path 84" d="M113.11,1733.185a16.17,16.17,0,0,1-16.136-16.165,4.824,4.824,0,0,1,4.819-4.835,4.14,4.14,0,0,1,.806.074,4.405,4.405,0,0,1,.753.189,1.05,1.05,0,0,1,.685.793l1.431,6.3a1.038,1.038,0,0,1-.271.964c-.136.143-.143.158-1.431.83a10.39,10.39,0,0,0,5.1,5.129c.685-1.3.693-1.312.843-1.448a1.03,1.03,0,0,1,.964-.272l6.287,1.441a1.054,1.054,0,0,1,.753.679,3.828,3.828,0,0,1,.2.769,4.7,4.7,0,0,1,.068.8,4.832,4.832,0,0,1-4.864,4.753" transform="translate(-96.974 -1712.185)" fill="#707070"/>
</svg>
